# xmcd
#
# Track frame offsets:
#	150
#	13162
#	25900
#	35652
#	45395
#	56677
#	69225
#	80285
#	93512
#	103750
#	112805
#	125827
#	136257
#	146590
#	156870
#	167182
#	179042
#	192337
#	204235
#	215635
#	227255
#	237882
#	248145
#	260730
#	271332
#
# Disc length: 3782 seconds
#
# Revision: 0
# Processed by: cddbd v1.4PL0 Copyright (c) Steve Scherf et al.
# Submitted via: dBpowerAMP V4.0
#
DISCID=650ec419
DTITLE=Lydia Tuinenburg - I can't stop loving you
DYEAR=1900
DGENRE=Country
TTITLE0=Send me the pillow
TTITLE1=Heartbeat
TTITLE2=Don't stop kissing me goodnight
TTITLE3=It's a sin
TTITLE4=Lipstick on your collar
TTITLE5=Your cheating heart
TTITLE6=Take these chains from my heart
TTITLE7=Have I told you lately that I love you
TTITLE8=Careless hands
TTITLE9=Let me go lover
TTITLE10=Just a queen for a day
TTITLE11=Half as much
TTITLE12=You belong to my heart
TTITLE13=Each time you leave I die a little
TTITLE14=Ik zal Tommy missen
TTITLE15=Ik blijf van Laura houden
TTITLE16=Never on sunday
TTITLE17=Everybody is somebody's fool
TTITLE18=Please help me I'm falling
TTITLE19=Changing partners
TTITLE20=Jealous heart
TTITLE21=You're fooling someone
TTITLE22=Just out of reach
TTITLE23=I forgot to remember to forget
TTITLE24=I can't stop loving you
EXTD=Recorded between 1959 - 1961\nCompilation 1993 Rarity Records
EXTT0=
EXTT1=
EXTT2=
EXTT3=
EXTT4=
EXTT5=
EXTT6=
EXTT7=
EXTT8=
EXTT9=
EXTT10=
EXTT11=
EXTT12=
EXTT13=
EXTT14=
EXTT15=
EXTT16=
EXTT17=
EXTT18=
EXTT19=
EXTT20=
EXTT21=
EXTT22=
EXTT23=
EXTT24=
PLAYORDER=
